<svg width="16" height="19" viewBox="0 0 16 19" fill="none" xmlns="http://www.w3.org/2000/svg">
<g opacity="0.7" clip-path="url(#clip0_902_9863)">
<path d="M9.39138 10.3597C9.61563 10.3597 9.84419 10.3645 10.0724 10.3582C10.2563 10.3531 10.334 10.433 10.3294 10.6055C10.3248 10.7771 10.329 10.9489 10.3269 11.1206C10.3253 11.2531 10.2606 11.3225 10.1147 11.3191C9.92883 11.3149 9.74209 11.3278 9.55699 11.3155C9.41707 11.3063 9.36084 11.3578 9.31754 11.4822C9.03624 12.2897 8.4585 12.7909 7.59323 12.978C7.42759 13.0138 7.25448 13.0176 7.04331 13.0408C7.11259 13.1103 7.16126 13.1618 7.2128 13.2104C7.87085 13.8316 8.53114 14.4507 9.18472 15.0762C9.24691 15.1357 9.26776 15.2349 9.30781 15.3159C9.21519 15.3532 9.12356 15.4197 9.02978 15.4226C8.70879 15.4326 8.35204 15.5021 8.07543 15.3932C7.79949 15.2846 7.59993 14.9921 7.3733 14.7739C6.87817 14.2974 6.39044 13.8137 5.89202 13.3404C5.76975 13.2243 5.71566 13.1025 5.72188 12.9397C5.73106 12.6996 5.728 12.4588 5.7232 12.2185C5.71962 12.0393 5.78921 11.9576 5.98955 11.9629C6.38983 11.9734 6.79101 11.9757 7.19113 11.9623C7.65409 11.9469 8.00193 11.7408 8.23951 11.3062H7.8164C7.20121 11.3061 6.58598 11.3026 5.97084 11.3082C5.77929 11.3099 5.69308 11.2415 5.7053 11.0527C5.71502 10.9022 5.71508 10.7501 5.70527 10.5996C5.69304 10.4116 5.77624 10.3432 5.96947 10.3449C6.63468 10.3511 7.29999 10.3473 7.96525 10.3472H8.22481C8.15774 10.2402 8.11949 10.1549 8.05937 10.0876C7.83961 9.8417 7.56146 9.69905 7.21943 9.69428C6.81178 9.6886 6.40401 9.69183 5.99632 9.68851C5.74685 9.68648 5.70871 9.64869 5.70745 9.41546C5.70648 9.23687 5.70971 9.05821 5.70662 8.87966C5.70412 8.7351 5.76837 8.66535 5.92396 8.66553C7.32602 8.66713 8.7281 8.66707 10.1302 8.66557C10.2664 8.66542 10.3278 8.72734 10.3284 8.85229C10.3293 9.04463 10.3283 9.23698 10.3278 9.42932C10.3274 9.58416 10.2446 9.65031 10.0854 9.6487C9.75696 9.64536 9.4285 9.64769 9.07778 9.64769C9.18378 9.88835 9.28194 10.1113 9.39138 10.3597Z" fill="white"/>
<path d="M4.22833 0.579956H11.3559C11.9217 0.579956 12.1984 1.25808 11.7895 1.6424L10.5859 2.77357C9.02938 4.23633 6.57869 4.24053 5.01703 2.78314L3.79629 1.6439C3.3852 1.26026 3.66146 0.579956 4.22833 0.579956Z" stroke="white" stroke-miterlimit="10"/>
<path d="M3.19568 7.19354L1.07981 11.5592C-0.449573 14.7147 1.78672 18.4201 5.22058 18.4201H10.7793C14.1906 18.4201 16.4279 14.7588 14.9428 11.6068L12.8896 7.24906C10.9362 3.10328 5.19401 3.0704 3.19568 7.19354Z" stroke="white" stroke-miterlimit="10"/>
</g>
<defs>
<clipPath id="clip0_902_9863">
<rect width="16" height="19" fill="white"/>
</clipPath>
</defs>
</svg>
