<svg width="19" height="19" viewBox="0 0 19 19" fill="none" xmlns="http://www.w3.org/2000/svg">
<path opacity="0.7" d="M3.07438 9.44568L1 6.41957L3.73211 0.5H14.7111L17.7974 6.41957L9.406 18.1575L5.21872 12.4518" stroke="white"/>
<path opacity="0.7" d="M9.25584 12.7854C9.31195 12.726 9.33394 12.7111 9.3433 12.6915C10.4144 10.449 11.4873 8.20716 12.5464 5.96021C12.5978 5.85135 12.5749 5.67247 12.5056 5.56863C12.1194 4.98976 11.7168 4.41888 11.2972 3.85855C11.2241 3.76095 11.0442 3.6735 10.912 3.67169C9.82635 3.65678 8.74021 3.65553 7.65467 3.67261C7.51297 3.67484 7.32217 3.7741 7.24218 3.88043C6.83637 4.41985 6.44645 4.96974 6.0826 5.53203C5.99875 5.66162 5.97231 5.87791 6.03336 6.01424C6.41769 6.87262 6.83368 7.71987 7.24016 8.57044C7.90444 9.96046 8.56945 11.3502 9.25584 12.7854Z" stroke="white" stroke-miterlimit="10"/>
</svg>
