<svg width="11" height="13" viewBox="0 0 11 13" fill="none" xmlns="http://www.w3.org/2000/svg">
<path d="M5.8373 12.4551C4.84408 12.2251 3.80385 11.5401 3.07126 10.4201C2.45253 9.47416 1.86369 8.50457 1.30781 7.51697C0.774096 6.56875 0.596774 5.51791 0.728705 4.41355C0.906147 2.92825 1.57553 1.71889 2.71478 0.784303C3.31486 0.292019 4.13923 0.4297 4.55103 1.07991C4.6756 1.27661 4.7975 1.47537 4.91427 1.67721C5.31476 2.36944 5.05834 3.21164 4.34198 3.56512C3.22709 4.11526 2.85956 5.37655 3.5061 6.4367C4.01083 7.26433 4.51543 8.09206 5.02246 8.91816C5.65784 9.95336 6.89212 10.1454 7.82773 9.35685C8.5151 8.77754 9.33157 8.90421 9.79599 9.66234C9.8958 9.82527 9.99753 9.98698 10.0943 10.1519C10.4842 10.8164 10.2519 11.6492 9.57543 12.0172C8.51129 12.5961 7.29785 12.7724 5.8373 12.4551Z" fill="#2B2B2B"/>
</svg>
