<svg width="26" height="26" viewBox="0 0 26 26" fill="none" xmlns="http://www.w3.org/2000/svg">
<g clip-path="url(#clip0_911_591)">
<path d="M9.41383 21.9375H4.875C4.65951 21.9375 4.45285 21.8519 4.30048 21.6995C4.1481 21.5472 4.0625 21.3405 4.0625 21.125V16.5862C4.0626 16.371 4.14807 16.1646 4.30016 16.0124L16.8248 3.48767C16.9772 3.33541 17.1838 3.24988 17.3992 3.24988C17.6146 3.24988 17.8212 3.33541 17.9735 3.48767L22.5123 8.02345C22.6646 8.1758 22.7501 8.38239 22.7501 8.59778C22.7501 8.81318 22.6646 9.01976 22.5123 9.17212L9.98766 21.6999C9.8354 21.8519 9.62903 21.9374 9.41383 21.9375Z" stroke="#FF7000" stroke-width="1.5" stroke-linecap="round" stroke-linejoin="round"/>
<path d="M13.8125 6.5L19.5 12.1875" stroke="#FF7000" stroke-width="1.5" stroke-linecap="round" stroke-linejoin="round"/>
</g>
<defs>
<clipPath id="clip0_911_591">
<rect width="26" height="26" fill="white"/>
</clipPath>
</defs>
</svg>
