<svg width="14" height="12" viewBox="0 0 14 12" fill="none" xmlns="http://www.w3.org/2000/svg">
<g clip-path="url(#clip0_905_121)">
<path d="M3.06267 9.07277C2.66951 9.07277 2.30214 9.07813 1.93499 9.07172C1.00786 9.05554 0.246583 8.45766 0.0458411 7.58796C0.0169243 7.46269 0.00286809 7.33163 0.00266995 7.20322C-6.87083e-05 5.42471 -0.00114181 3.6462 0.00158508 1.86769C0.00312705 0.861077 0.831353 0.0403793 1.87424 0.00476041C1.99839 0.000519523 2.12277 0.0017393 2.24703 0.00173363C5.47845 0.00159202 8.70987 0.00386729 11.9413 2.1573e-06C12.7212 -0.000930611 13.3199 0.300599 13.7276 0.940603C13.9186 1.24046 13.9984 1.5725 13.9983 1.92336C13.998 3.67198 14.0035 5.42062 13.9961 7.16921C13.9919 8.14177 13.3426 8.87435 12.3471 9.05032C12.206 9.07526 12.0586 9.07308 11.914 9.07322C10.4019 9.07473 8.88976 9.07576 7.37764 9.07132C7.24709 9.07094 7.15755 9.11034 7.06466 9.19514C6.11811 10.0592 5.1683 10.92 4.21722 11.7795C3.86331 12.0993 3.38575 12.0695 3.16805 11.7014C3.09589 11.5794 3.0694 11.4183 3.0672 11.2745C3.057 10.607 3.06268 9.9394 3.06267 9.27184C3.06267 9.21308 3.06267 9.15432 3.06267 9.07277ZM6.98603 5.33273C7.45481 5.33455 7.82959 4.98 7.83101 4.5334C7.83241 4.09135 7.45016 3.72216 6.9919 3.72293C6.53931 3.7237 6.15982 4.08518 6.15487 4.52023C6.14978 4.96689 6.5222 5.33094 6.98603 5.33273ZM9.91674 5.33265C10.3867 5.33371 10.7544 4.98245 10.7548 4.53193C10.7552 4.08401 10.3802 3.72073 9.91979 3.7231C9.4729 3.7254 9.0885 4.09235 9.08188 4.52299C9.0751 4.96387 9.45428 5.33161 9.91674 5.33265ZM4.05825 5.33268C4.51703 5.3338 4.90269 4.96846 4.9038 4.53168C4.9049 4.09898 4.51042 3.72042 4.06118 3.72307C3.61243 3.72572 3.2331 4.09127 3.23096 4.52314C3.22873 4.97502 3.59308 5.33155 4.05825 5.33268Z" fill="#2B2B2B"/>
</g>
<defs>
<clipPath id="clip0_905_121">
<rect width="14" height="12" fill="white"/>
</clipPath>
</defs>
</svg>
