<svg width="12" height="14" viewBox="0 0 12 14" fill="none" xmlns="http://www.w3.org/2000/svg">
<path d="M5.92986 13.2325C4.47882 13.2325 3.02779 13.2319 1.57676 13.2332C1.3769 13.2333 1.22184 13.1587 1.12789 12.9724C1.07156 12.8608 1.07582 12.7392 1.08367 12.6177C1.10846 12.2339 1.2314 11.88 1.38717 11.5346C1.5953 11.0731 1.76519 10.5966 1.90413 10.1082C2.03093 9.66254 2.13624 9.21158 2.19594 8.75134C2.23595 8.44283 2.26195 8.13197 2.28255 7.82134C2.29675 7.60744 2.28612 7.39194 2.29508 7.17751C2.31531 6.69359 2.41744 6.22828 2.60345 5.78232C2.79708 5.31806 3.07771 4.91652 3.42993 4.56821C3.90976 4.09371 4.47729 3.78345 5.12583 3.63059C5.49136 3.54443 5.86166 3.51393 6.23501 3.5468C6.611 3.5799 6.97231 3.67907 7.32299 3.82241C7.62409 3.94547 7.89497 4.11926 8.15175 4.32055C8.64763 4.70931 9.00394 5.20796 9.2583 5.7891C9.40668 6.12815 9.49301 6.48449 9.53461 6.85219C9.5526 7.01128 9.56328 7.17233 9.56244 7.33241C9.56033 7.73561 9.58836 8.13627 9.6353 8.53611C9.72287 9.28202 9.89865 10.0058 10.1441 10.7127C10.272 11.081 10.4242 11.4384 10.5789 11.7951C10.7042 12.0842 10.7624 12.3897 10.7788 12.7056C10.7945 13.0092 10.5845 13.2371 10.2737 13.235C9.29868 13.2282 8.32357 13.2324 7.34849 13.2323C6.87563 13.2323 6.40272 13.2325 5.92986 13.2325Z" stroke="#303030" stroke-width="1.5" stroke-miterlimit="10"/>
<path d="M5.92262 2.83927C5.65232 2.83927 5.38199 2.83895 5.11169 2.83936C4.84203 2.83977 4.64028 2.63675 4.6446 2.35751C4.65336 1.79203 4.99418 1.23048 5.65849 1.08471C6.04969 0.99886 6.41033 1.08606 6.72026 1.34419C7.01375 1.58862 7.17132 1.91509 7.19813 2.30452C7.21317 2.52316 7.11288 2.71066 6.93032 2.7955C6.87316 2.82206 6.80578 2.83583 6.7428 2.83682C6.46946 2.84121 6.19601 2.83927 5.92262 2.83927Z" stroke="#303030" stroke-miterlimit="10"/>
</svg>
