<svg width="27" height="33" viewBox="0 0 27 33" fill="none" xmlns="http://www.w3.org/2000/svg">
<g clip-path="url(#clip0_911_454)">
<path d="M27 30.9658C27 32.0892 20.9558 33 13.5003 33C6.04471 33 0 32.0892 0 30.9658C0 29.8435 6.04471 28.9327 13.5003 28.9327C20.9558 28.9327 27 29.8435 27 30.9658Z" fill="url(#paint0_radial_911_454)"/>
<path d="M21.5563 17.1587H18.7652C17.3409 17.1587 16.1757 16.0024 16.1757 14.5872V14.4835C16.1757 13.0693 15.0105 11.9119 13.5867 11.9119H13.4127C11.9894 11.9119 10.8237 13.0693 10.8237 14.4835V14.5872C10.8237 16.0024 9.65694 17.1587 8.23464 17.1587H5.44261C4.01877 17.1587 2.85254 18.3174 2.85254 19.7326V29.3495C7.97553 30.2077 9.55565 30.0911 13.7664 30.0911C17.9781 30.0911 19.0768 29.958 24.1458 29.0885V19.7326C24.1458 18.3174 22.9816 17.1587 21.5563 17.1587Z" fill="url(#paint1_radial_911_454)"/>
<path d="M11.366 30.2304C8.83567 30.2304 6.99958 30.1798 2.83098 29.4815L2.71777 29.4629V19.7326C2.71777 18.2392 3.94063 17.0246 5.44285 17.0246H8.23487C9.58758 17.0246 10.6895 15.9318 10.6895 14.5872V14.4835C10.6895 12.9919 11.9118 11.7773 13.4129 11.7773H13.5869C15.0891 11.7773 16.3109 12.9919 16.3109 14.4835V14.5872C16.3109 15.9318 17.4113 17.0246 18.7655 17.0246H21.5565C23.0588 17.0246 24.2811 18.2392 24.2811 19.7326V29.203L24.1694 29.2216C19.13 30.086 18.011 30.2252 13.7666 30.2252L11.366 30.2304ZM2.98879 29.237C7.05668 29.9127 8.87257 29.9622 11.366 29.9622L13.7666 29.956C17.9586 29.956 19.0874 29.8198 24.0121 28.975V19.7326C24.0121 18.3875 22.9103 17.2933 21.5565 17.2933H18.7655C17.2633 17.2933 16.0409 16.0793 16.0409 14.5872V14.4835C16.0409 13.1394 14.9396 12.0465 13.5869 12.0465H13.4129C12.0603 12.0465 10.9595 13.1394 10.9595 14.4835V14.5872C10.9595 16.0793 9.7371 17.2933 8.23487 17.2933H5.44285C4.08962 17.2933 2.98879 18.3875 2.98879 19.7326V29.237Z" fill="#1F5BA2"/>
<path d="M7.09947 17.5714C7.95623 17.4816 6.15907 18.4907 5.25041 18.9141C4.34169 19.3386 3.33014 20.1948 3.10948 19.7275C2.88775 19.2602 3.44026 18.1294 4.34844 17.7054C5.25716 17.2815 6.58226 17.625 7.09947 17.5714Z" fill="url(#paint2_linear_911_454)"/>
<path d="M18.9622 3.17859C18.6231 0.519898 15.5922 0.134094 14.1673 0.134094H12.6563C11.233 0.134094 8.12988 0.691119 8.12988 3.17859V6.30822C8.12988 6.9132 8.29913 7.43927 8.42169 7.85808C8.43413 7.85497 8.44509 7.85291 8.45907 7.84932L8.5458 7.82972C8.65017 7.88539 8.73376 7.39232 8.73376 6.73374V8.01642C8.64028 7.94681 8.5458 7.91428 8.45907 7.93546C8.45439 7.93646 8.45025 7.93852 8.44509 7.9401C8.43727 7.91428 8.42844 7.88592 8.42169 7.85808C8.22336 7.90345 8.22022 7.90451 8.22022 7.90451C8.20826 8.04478 8.19688 8.1794 8.18593 8.30008C8.1008 8.61416 8.11016 9.0964 8.23165 9.61524C8.43052 10.4683 8.85632 11.1006 9.18083 11.0254C9.23746 11.0124 9.28627 10.9779 9.32886 10.9268C10.102 13.0275 11.5404 15.1401 13.1366 15.1401H14.0858C15.681 15.1401 17.0409 13.0275 17.7637 10.9268C17.8053 10.9779 17.8551 11.0124 17.9117 11.0254C18.2368 11.1006 18.6615 10.4683 18.8609 9.61524C19.0042 9.0015 18.9907 8.44088 18.85 8.14587C18.8697 8.07214 18.8785 7.99218 18.8729 7.90451C18.8729 7.90451 18.8697 7.90451 18.7274 7.8715C18.7171 7.90345 18.7072 7.93134 18.6973 7.9607C18.6761 7.94887 18.6553 7.9401 18.6335 7.93546C18.5332 7.91222 18.4232 7.95605 18.3157 8.05249V6.75127C18.3157 7.41968 18.4133 7.90345 18.5332 7.8256L18.6335 7.84932C18.6709 7.85756 18.7005 7.86374 18.7274 7.8715C18.8511 7.46251 18.9622 6.92661 18.9622 6.30822V3.17859Z" fill="url(#paint3_radial_911_454)"/>
<path d="M14.0856 15.2747H13.1364C11.4488 15.2747 10.014 13.0843 9.26427 11.1398C9.24555 11.1465 9.2279 11.1522 9.2087 11.1563L9.12613 11.1646C8.66347 11.1646 8.26989 10.3776 8.09905 9.64466C7.97649 9.11806 7.96091 8.61469 8.0554 8.26554L8.09176 7.8199L8.17743 7.77606C8.17743 7.77606 8.17849 7.77606 8.25171 7.75906C8.13329 7.35931 7.99414 6.8673 7.99414 6.30822V3.17859C7.99414 0.664818 11.0443 0 12.6561 0H14.1671C15.23 0 18.721 0.228472 19.0965 3.16105L19.097 6.30822C19.097 6.79975 19.03 7.29229 18.896 7.77295H19.0242L19.0066 7.89416C19.0123 7.97723 19.0077 8.05666 18.9926 8.13298C19.1323 8.47336 19.1323 9.04586 18.9926 9.64466C18.8113 10.4229 18.3513 11.2631 17.8804 11.1563C17.8632 11.1522 17.8476 11.1471 17.8315 11.1409C17.1014 13.1709 15.755 15.2747 14.0856 15.2747ZM9.3738 10.6586L9.45531 10.8809C10.1558 12.7836 11.5401 15.0049 13.1364 15.0049H14.0856C15.6605 15.0049 16.9815 12.7846 17.6342 10.883L17.7126 10.655L17.8668 10.8412C17.8923 10.8706 17.9162 10.8882 17.9406 10.8928H17.9421C18.1555 10.8928 18.5325 10.427 18.7283 9.58535C18.8597 9.02315 18.8597 8.48007 18.7283 8.20259L18.707 8.15928L18.72 8.11185C18.7205 8.10927 18.721 8.10668 18.721 8.10356L18.6322 8.07885C18.53 8.06179 18.4697 8.09479 18.4053 8.15204L18.181 8.35168V6.75127H18.4505C18.4505 7.25981 18.5066 7.55995 18.5465 7.67498L18.5564 7.6688L18.5647 7.6951L18.6333 7.71158C18.7621 7.25104 18.8269 6.77963 18.8269 6.30822V3.17859C18.4811 0.480181 15.1735 0.269191 14.1671 0.269191H12.6561C11.1372 0.269191 8.26521 0.877287 8.26521 3.17859V6.30822C8.26521 6.82811 8.39761 7.29747 8.51028 7.68063C8.54766 7.56407 8.59754 7.25516 8.59754 6.73374H8.86909V8.2882L8.65204 8.12368C8.59908 8.0845 8.55027 8.06337 8.51183 8.06337L8.38411 8.09891L8.34518 8.03084L8.32078 8.31244C8.23453 8.63893 8.25171 9.10623 8.36284 9.58588C8.55963 10.4296 8.93917 10.8964 9.12613 10.8964C9.17547 10.8882 9.19881 10.8712 9.22269 10.8412L9.3738 10.6586Z" fill="#1F5BA2"/>
<path d="M17.3816 2.18421C17.3816 3.2596 15.6852 4.13277 13.5937 4.13277C11.5015 4.13277 9.80566 3.2596 9.80566 2.18421C9.80566 1.10782 11.5015 0.235176 13.5937 0.235176C15.6852 0.235176 17.3816 1.10782 17.3816 2.18421Z" fill="url(#paint4_linear_911_454)"/>
</g>
<defs>
<radialGradient id="paint0_radial_911_454" cx="0" cy="0" r="1" gradientUnits="userSpaceOnUse" gradientTransform="translate(13.5 30.9664) scale(12.707 2.17868)">
<stop offset="0.0303" stop-color="#004FAD"/>
<stop offset="0.26061" stop-color="#005CBC"/>
<stop offset="0.90303" stop-color="white"/>
</radialGradient>
<radialGradient id="paint1_radial_911_454" cx="0" cy="0" r="1" gradientUnits="userSpaceOnUse" gradientTransform="translate(21.0733 17.8035) scale(7.99226 7.93835)">
<stop stop-color="#00C2FF"/>
<stop offset="0.08345" stop-color="#00B4F6"/>
<stop offset="0.35786" stop-color="#008EDD"/>
<stop offset="0.61109" stop-color="#0072CA"/>
<stop offset="0.83319" stop-color="#0061BF"/>
<stop offset="1" stop-color="#005CBC"/>
</radialGradient>
<linearGradient id="paint2_linear_911_454" x1="4.58237" y1="17.0601" x2="5.25103" y2="18.7813" gradientUnits="userSpaceOnUse">
<stop stop-color="#00C2FF"/>
<stop offset="0.08345" stop-color="#00B4F6"/>
<stop offset="0.35786" stop-color="#008EDD"/>
<stop offset="0.61109" stop-color="#0072CA"/>
<stop offset="0.83319" stop-color="#0061BF"/>
<stop offset="1" stop-color="#005CBC"/>
</linearGradient>
<radialGradient id="paint3_radial_911_454" cx="0" cy="0" r="1" gradientUnits="userSpaceOnUse" gradientTransform="translate(13.8481 15.2333) scale(6.69301 6.64786)">
<stop stop-color="#00C2FF"/>
<stop offset="0.08345" stop-color="#00B4F6"/>
<stop offset="0.35786" stop-color="#008EDD"/>
<stop offset="0.61109" stop-color="#0072CA"/>
<stop offset="0.83319" stop-color="#0061BF"/>
<stop offset="1" stop-color="#005CBC"/>
</radialGradient>
<linearGradient id="paint4_linear_911_454" x1="13.8047" y1="-0.960466" x2="13.477" y2="3.98803" gradientUnits="userSpaceOnUse">
<stop stop-color="#00C2FF"/>
<stop offset="0.08345" stop-color="#00B4F6"/>
<stop offset="0.35786" stop-color="#008EDD"/>
<stop offset="0.61109" stop-color="#0072CA"/>
<stop offset="0.83319" stop-color="#0061BF"/>
<stop offset="1" stop-color="#005CBC"/>
</linearGradient>
<clipPath id="clip0_911_454">
<rect width="27" height="33" fill="white"/>
</clipPath>
</defs>
</svg>
