<svg width="14" height="20" viewBox="0 0 14 20" fill="none" xmlns="http://www.w3.org/2000/svg">
<path d="M11.877 2.08602C10.8441 1.99557 9.42853 1.86531 8.70304 0.259749C8.67582 0.198649 8.63106 0.146965 8.5744 0.111225C8.51775 0.0754849 8.45175 0.0572908 8.38474 0.058941H5.61883C5.55171 0.0573494 5.48562 0.0755564 5.42883 0.111279C5.37205 0.147002 5.3271 0.19865 5.29962 0.259749C4.56778 1.87164 3.20206 1.97838 2.20543 2.0625C1.22512 2.1421 0.882324 2.22713 0.882324 2.87659V18.697C0.884473 18.826 0.937791 18.9489 1.0306 19.0388C1.12341 19.1286 1.24814 19.1781 1.37747 19.1764H12.6225C12.7518 19.1781 12.8765 19.1286 12.9693 19.0388C13.0622 18.9489 13.1155 18.826 13.1176 18.697V2.7192C13.1167 2.2416 12.7957 2.17014 11.877 2.08602ZM7.97121 1.44018H6.02782C5.96385 1.44018 5.90249 1.41483 5.85725 1.3697C5.81201 1.32458 5.7866 1.26338 5.7866 1.19957C5.7866 1.13576 5.81201 1.07456 5.85725 1.02943C5.90249 0.98431 5.96385 0.95896 6.02782 0.95896H7.97121C8.03519 0.95896 8.09655 0.98431 8.14178 1.02943C8.18702 1.07456 8.21244 1.13576 8.21244 1.19957C8.21244 1.26338 8.18702 1.32458 8.14178 1.3697C8.09655 1.41483 8.03519 1.44018 7.97121 1.44018Z" fill="#004792"/>
<path d="M12.5921 3.20858V18.3205C12.5919 18.446 12.5421 18.5662 12.4537 18.655C12.3653 18.7437 12.2454 18.7937 12.1204 18.7939H1.97567C1.85062 18.7937 1.73077 18.7437 1.64235 18.655C1.55393 18.5662 1.50415 18.446 1.50391 18.3205V3.20858C1.50391 3.08301 1.55361 2.96258 1.64208 2.87379C1.73055 2.78499 1.85055 2.73511 1.97567 2.73511H12.1213C12.2463 2.73535 12.366 2.78534 12.4543 2.87411C12.5426 2.96288 12.5921 3.08317 12.5921 3.20858Z" fill="#FC9A4E"/>
<path d="M5.57979 5.0292H11.1921C11.3308 5.0292 11.4448 4.94337 11.4448 4.83858C11.4448 4.7338 11.3308 4.64685 11.1921 4.64685H5.57979C5.44112 4.64685 5.32715 4.73269 5.32715 4.83858C5.32715 4.94448 5.44112 5.0292 5.57979 5.0292Z" fill="white"/>
<path d="M5.84918 16.8823H3.65835C3.52416 16.8823 3.41553 16.9676 3.41553 17.0735C3.41553 17.1794 3.52416 17.2647 3.65835 17.2647H5.84918C5.98337 17.2647 6.092 17.1794 6.092 17.0735C6.092 16.9676 5.98246 16.8823 5.84918 16.8823Z" fill="white"/>
<path d="M10.4366 16.8823H7.09982C6.96532 16.8823 6.85645 16.9685 6.85645 17.0741C6.85645 17.1797 6.96624 17.2647 7.09982 17.2647H10.4366C10.5711 17.2647 10.68 17.1797 10.68 17.0741C10.68 16.9685 10.5711 16.8823 10.4366 16.8823Z" fill="white"/>
<path d="M2.65088 5.98899V5.89031C2.65105 5.85552 2.66071 5.82145 2.6788 5.7918C2.69688 5.76216 2.72271 5.73808 2.75346 5.72219C2.76805 5.69739 2.78827 5.67641 2.81246 5.66097C2.81698 5.64869 2.82244 5.63677 2.8288 5.62534L2.83425 5.18586C2.80231 5.17055 2.77532 5.14648 2.75637 5.11641C2.73742 5.08635 2.72728 5.05151 2.72713 5.01591V4.93368C2.7272 4.90227 2.73503 4.87138 2.74993 4.84378C2.76483 4.81618 2.78632 4.79276 2.81246 4.77561L3.50055 4.29775C3.53196 4.27611 3.56915 4.26453 3.60721 4.26453C3.64528 4.26453 3.68246 4.27611 3.71388 4.29775L4.40469 4.77744C4.43082 4.79493 4.45199 4.81894 4.46615 4.84712C4.48031 4.87531 4.48697 4.9067 4.48548 4.93825V5.015C4.48552 5.05053 4.47557 5.08534 4.45677 5.11541C4.43798 5.14549 4.41111 5.16959 4.37927 5.18494L4.38472 5.62534C4.39125 5.63637 4.39672 5.64799 4.40106 5.66006C4.42536 5.67575 4.44558 5.69705 4.46007 5.72219C4.49094 5.73791 4.51688 5.76195 4.53499 5.79164C4.5531 5.82132 4.56268 5.85548 4.56264 5.89031V5.98807C4.5624 6.03807 4.5425 6.08595 4.50729 6.12122C4.47207 6.15649 4.42441 6.17629 4.37473 6.17629H2.83788C2.7882 6.17605 2.74064 6.15602 2.70559 6.12057C2.67055 6.08513 2.65088 6.03716 2.65088 5.98716V5.98899Z" stroke="white" stroke-width="0.25" stroke-miterlimit="10"/>
<path d="M5.57592 5.79428H9.66661C9.80409 5.79428 9.91538 5.70844 9.91538 5.60254C9.91538 5.49665 9.80409 5.41193 9.66661 5.41193H5.57592C5.43938 5.41193 5.32715 5.49776 5.32715 5.60254C5.32715 5.70733 5.43938 5.79428 5.57592 5.79428Z" fill="white"/>
<path d="M6.93741 7.70587C7.219 7.70587 7.49427 7.78937 7.7284 7.94581C7.96254 8.10226 8.14502 8.32462 8.25278 8.58477C8.36054 8.84493 8.38874 9.13119 8.3338 9.40737C8.27886 9.68355 8.14327 9.93724 7.94415 10.1364C7.74504 10.3355 7.49135 10.4711 7.21517 10.526C6.93899 10.5809 6.65273 10.5527 6.39257 10.445C6.13242 10.3372 5.91006 10.1547 5.75362 9.9206C5.59717 9.68647 5.51367 9.4112 5.51367 9.12961C5.51575 8.75265 5.66642 8.39173 5.93297 8.12517C6.19953 7.85862 6.56045 7.70795 6.93741 7.70587Z" fill="white"/>
<path d="M6.93759 11.0537C7.7316 11.056 8.49244 11.3724 9.05396 11.9338C9.61548 12.4951 9.93207 13.2559 9.93457 14.0499V14.4288H3.94141V14.0499C3.94391 13.256 4.26038 12.4954 4.82173 11.934C5.38309 11.3727 6.14372 11.0562 6.93759 11.0537Z" fill="white"/>
</svg>
