<svg width="12" height="8" viewBox="0 0 21 13" fill="none" xmlns="http://www.w3.org/2000/svg">
<path d="M10.3185 1.00205C5.00922 1.12701 1 6.5 1 6.5C1 6.5 5.00922 11.873 10.3185 11.9979C15.6278 12.1229 20 6.5 20 6.5C20 6.5 15.6278 0.877099 10.3185 1.00205Z" stroke="#B0B4B8" stroke-width="1.2" stroke-miterlimit="10"/>
<path d="M10.3698 9.91298C12.4024 9.91298 14.0502 8.26894 14.0502 6.24091C14.0502 4.21289 12.4024 2.56885 10.3698 2.56885C8.33721 2.56885 6.68945 4.21289 6.68945 6.24091C6.68945 8.26894 8.33721 9.91298 10.3698 9.91298Z" stroke="#B0B4B8" stroke-width="1.2" stroke-miterlimit="10"/>
<path d="M10.3697 7.23047C10.9175 7.23047 11.3615 6.78743 11.3615 6.24091C11.3615 5.69439 10.9175 5.25134 10.3697 5.25134C9.82197 5.25134 9.37793 5.69439 9.37793 6.24091C9.37793 6.78743 9.82197 7.23047 10.3697 7.23047Z" stroke="#B0B4B8" stroke-width="1.2" stroke-miterlimit="10"/>
</svg>
