<svg width="15" height="15" viewBox="0 0 15 15" fill="none" xmlns="http://www.w3.org/2000/svg">
<circle cx="7.5" cy="7.5" r="6.5" fill="#19D247" fill-opacity="0.9" stroke="#5EFF76" stroke-width="2"/>
<path d="M6.77607 9.86843C6.68439 9.86843 6.59398 9.85013 6.51198 9.81498C6.42999 9.77982 6.35867 9.72878 6.30368 9.6659L4.85531 8.01044C4.80868 7.95726 4.77473 7.89673 4.75541 7.8323C4.73609 7.76787 4.73177 7.7008 4.74271 7.63494C4.75364 7.56908 4.77961 7.5057 4.81913 7.44845C4.85866 7.3912 4.91096 7.34119 4.97304 7.30127C5.03513 7.26136 5.10579 7.23233 5.18097 7.21584C5.25616 7.19935 5.3344 7.19572 5.41122 7.20517C5.48804 7.21462 5.56194 7.23695 5.62868 7.2709C5.69542 7.30484 5.7537 7.34973 5.80019 7.403L6.74776 8.48596L9.18148 5.35664C9.26843 5.24506 9.40349 5.16764 9.557 5.14138C9.71051 5.11512 9.86991 5.14218 10.0002 5.21662C10.1304 5.29105 10.2208 5.40676 10.2516 5.53833C10.2824 5.6699 10.2509 5.80655 10.1642 5.91827L7.2675 9.64299C7.2151 9.71036 7.14462 9.76597 7.06198 9.80517C6.97933 9.84436 6.88692 9.866 6.79251 9.86827C6.78703 9.86835 6.78155 9.86843 6.77607 9.86843Z" fill="white"/>
</svg>
