<svg width="115" height="12" viewBox="0 0 115 12" fill="none" xmlns="http://www.w3.org/2000/svg">
<path fill-rule="evenodd" clip-rule="evenodd" d="M106.329 0.210748V2.18491H109.447V11.3969H111.882V2.18491H115V0.210748H106.329ZM87.6779 6.74504C88.4946 4.16907 88.9895 2.55444 89.1625 1.90178C89.2041 2.08544 89.2737 2.33548 89.3705 2.65129C89.4674 2.96806 89.9007 4.33232 90.6705 6.74504H87.6779ZM87.6627 0.164847L83.6098 11.397H86.2329L87.0656 8.73423H91.2523L92.0846 11.397H94.7081L90.6393 0.164847H87.6627ZM82.3404 0.210748H79.6384L76.5277 4.01332L75.5696 5.32964V0.210748H73.1348V11.3969H75.5696V7.40291L76.5986 6.68353L79.6068 11.3969H82.3717L78.3345 5.16121L82.3404 0.210748ZM65.8451 7.08901H68.021V9.4227C67.4972 9.52505 66.9813 9.5759 66.4738 9.5759C65.4997 9.5759 64.7575 9.25589 64.247 8.61554C63.7365 7.97552 63.4809 7.0482 63.4809 5.83423C63.4809 4.67111 63.7977 3.74573 64.4314 3.0568C65.0654 2.36851 65.9084 2.02421 66.9607 2.02421C67.8666 2.02421 68.7382 2.22827 69.5762 2.63605L70.3852 0.738657C69.2906 0.279369 68.1548 0.0500488 66.9763 0.0500488C65.0963 0.0500488 63.626 0.555007 62.5657 1.56525C61.5054 2.57516 60.9756 3.98282 60.9756 5.78856C60.9756 7.64514 61.4322 9.06997 62.3461 10.0618C63.2596 11.0542 64.5832 11.5501 66.3164 11.5501C66.997 11.5501 67.6636 11.5025 68.3155 11.4082C68.9672 11.3139 69.6627 11.1494 70.4012 10.9149V5.11517H65.8451V7.08901ZM56.4044 5.50552C56.4044 6.10732 56.4437 7.13537 56.5222 8.58871H56.4673L51.4793 0.210748H48.4082V11.3969H50.584V6.13258C50.584 5.49515 50.5344 4.4292 50.4349 2.93441H50.5058L55.5012 11.3969H58.5959V0.210748H56.4044V5.50552ZM43.0829 11.3969H45.5177V0.210748H43.0829V11.3969ZM34.6552 9.43793H33.6102V2.1541H34.9064C37.0846 2.1541 38.1735 3.35544 38.1735 5.75812C38.1735 8.21133 37.0008 9.43793 34.6552 9.43793ZM34.7805 0.210748H31.1753V11.3969H34.4271C36.4585 11.3969 38.0127 10.9072 39.0887 9.92803C40.1649 8.94856 40.7031 7.5383 40.7031 5.69662C40.7031 3.96765 40.1846 2.62088 39.1476 1.65695C38.1109 0.692709 36.6552 0.210748 34.7805 0.210748ZM26.0932 5.50552C26.0932 6.10732 26.1325 7.13537 26.2107 8.58871H26.1561L21.1684 0.210748H18.097V11.3969H20.2728V6.13258C20.2728 5.49515 20.2229 4.4292 20.1237 2.93441H20.1943L25.1896 11.3969H28.2844V0.210748H26.0932V5.50552ZM9.08745 11.3969H15.7012V9.43797H11.5222V6.55365H15.4104V4.61026H11.5222V2.15414H15.7012V0.210748H9.08745V11.3969ZM2.43511 0.210748H0V11.3969H7.09268V9.43797H2.43511V0.210748Z" fill="#294E9B"/>
<path fill-rule="evenodd" clip-rule="evenodd" d="M97.0181 0.0513731L96.1816 1.11308H98.3565C98.5731 1.12268 99.9921 1.27596 100.531 2.35124H97.0181L96.1826 3.4007H100.738C100.737 3.42123 100.735 3.43911 100.734 3.45963C100.734 3.45963 100.791 5.76877 96.6835 5.35859V6.59675L101.033 11.5501H102.705V11.1965L98.5235 6.24318C98.5235 6.24318 101.82 6.28092 102.374 3.41858C102.374 3.41858 102.374 3.41295 102.376 3.4007H103.781L104.545 2.35124H102.371C102.288 1.95497 102.036 1.46765 101.702 1.11308H103.876L104.544 0.0500488L97.0181 0.0513731Z" fill="#FF7000"/>
</svg>
